<?xml version="1.0" standalone="no"?>
<!DOCTYPE svg PUBLIC "-//W3C//DTD SVG 20010904//EN"
 "http://www.w3.org/TR/2001/REC-SVG-20010904/DTD/svg10.dtd">
<svg version="1.0" xmlns="http://www.w3.org/2000/svg"
 width="367.000000pt" height="125.000000pt" viewBox="0 0 367.000000 125.000000"
 preserveAspectRatio="xMidYMid meet">

<g transform="translate(0.000000,125.000000) scale(0.100000,-0.100000)"
fill="#000000" stroke="none">
<path d="M1268 1155 c-194 -37 -510 -205 -623 -332 -28 -32 -35 -34 -113 -40
-49 -3 -124 -1 -180 7 -129 16 -160 9 -190 -50 -19 -37 -22 -55 -18 -99 6 -65
29 -100 77 -117 54 -20 195 -17 284 6 113 29 116 28 160 -35 73 -107 191 -194
303 -225 110 -29 280 -40 637 -40 585 0 875 -23 1016 -79 71 -28 230 -71 265
-71 21 0 12 27 -40 120 -23 41 -51 97 -60 124 -22 57 -18 61 59 71 158 21 507
112 611 159 90 42 114 62 114 101 0 21 -9 44 -25 64 -52 61 -304 158 -498 192
-61 11 -112 21 -115 23 -2 2 29 36 68 75 69 67 72 72 58 93 -8 12 -38 30 -66
41 l-52 20 -63 -21 c-121 -42 -220 -62 -296 -62 -106 0 -379 25 -621 56 -254
33 -572 41 -692 19z m527 -45 c50 -6 161 -17 249 -25 87 -7 161 -16 164 -19 3
-4 -25 -6 -63 -6 -79 0 -80 -8 -3 -21 45 -7 41 -7 -27 -3 -44 2 -136 9 -205
14 -191 15 -486 12 -572 -4 -92 -18 -225 -65 -347 -123 -51 -24 -98 -42 -103
-41 -12 4 36 52 69 71 12 7 55 31 96 54 86 48 202 90 285 102 81 12 351 12
457 1z m395 -134 c674 -46 948 -89 1165 -184 105 -46 154 -77 165 -106 28 -73
-55 -115 -384 -195 -354 -86 -409 -91 -1116 -98 -528 -5 -605 -4 -682 11 -103
20 -172 47 -212 84 -15 15 -60 69 -98 119 -38 51 -93 116 -122 145 l-52 53
115 58 c138 70 232 106 321 124 82 16 587 10 900 -11z m-1346 -236 c24 -23 57
-61 73 -84 15 -22 34 -45 40 -49 7 -4 13 -15 13 -22 0 -8 4 -15 8 -15 8 0 16
-14 40 -62 2 -5 -3 -8 -11 -8 -7 0 -38 28 -68 62 -68 80 -146 158 -183 186
-16 13 -23 22 -15 23 8 1 3 5 -11 10 -19 7 -15 8 22 5 38 -3 54 -11 92 -46z
m-475 -16 c20 -15 33 -15 105 -5 114 16 126 15 126 -9 0 -11 -7 -20 -15 -20
-11 0 -14 -9 -13 -31 3 -26 -2 -34 -32 -50 -39 -22 -129 -26 -148 -7 -8 8 -12
9 -12 1 0 -6 6 -13 13 -16 6 -2 9 -8 5 -12 -10 -10 -49 25 -42 37 3 4 -15 31
-40 59 -25 28 -46 55 -46 60 0 15 74 10 99 -7z m331 -55 c0 -5 53 -62 118
-127 126 -126 176 -159 331 -218 46 -17 79 -34 74 -37 -13 -8 -126 10 -183 29
-146 49 -336 230 -364 346 -5 22 -3 26 9 22 8 -4 15 -10 15 -15z m-401 -11
c-5 -7 22 -48 32 -48 6 0 7 5 3 12 -4 6 -3 8 4 5 5 -4 8 -16 5 -26 -5 -19 -9
-20 -67 -12 -5 0 -3 8 4 16 7 9 10 18 6 22 -3 3 -6 1 -6 -5 0 -6 -7 -9 -15 -6
-8 4 -15 12 -15 20 0 8 6 11 17 7 11 -4 14 -3 9 5 -5 8 -1 10 10 5 13 -5 15
-3 9 8 -4 8 -5 11 -1 7 4 -3 7 -8 5 -10z m1826 -329 c55 -6 130 -13 168 -16
56 -5 65 -8 56 -20 -9 -11 -9 -12 5 -7 11 4 16 1 16 -11 0 -14 -8 -16 -62 -10
-35 3 -261 8 -502 10 -242 3 -447 7 -457 10 -18 6 -33 34 -23 44 20 20 587 20
799 0z"/>
</g>
</svg>
